<?xml version="1.0" standalone="no"?>
<!DOCTYPE svg PUBLIC "-//W3C//DTD SVG 20010904//EN"
 "http://www.w3.org/TR/2001/REC-SVG-20010904/DTD/svg10.dtd">
<svg version="1.0" xmlns="http://www.w3.org/2000/svg" viewBox="400 700 1200 450" preserveAspectRatio="xMidYMid meet">
  <metadata>
    Created by potrace 1.16, written by Peter Selinger 2001-2019
  </metadata>
  <g transform="translate(0.000000,2000.000000) scale(0.100000,-0.100000)" fill="#ffffff" stroke="none">
    <path fill-rule="evenodd" d="M6100 11345 c0 -41 1 -76 3 -77 1 -1 385 -5 852 -8 l850 -5 3 -178
c3 -201 8 -183 -88 -312 -33 -44 -110 -152 -172 -239 -62 -88 -147 -205 -188
-261 -41 -56 -93 -127 -115 -159 -22 -31 -80 -112 -130 -179 -49 -67 -128
-176 -175 -241 -47 -65 -107 -146 -133 -180 l-48 -61 538 -5 538 -5 3 -231 2
-232 -812 -7 c-447 -4 -842 -5 -878 -3 l-65 3 -3 192 -2 191 118 159 c65 87
149 203 187 258 38 55 122 172 187 260 266 360 298 404 361 495 37 52 96 135
131 184 36 50 63 93 60 98 -3 4 -42 5 -87 3 -45 -2 -275 -5 -511 -5 l-428 0 3
-132 4 -133 -130 -7 c-71 -5 -249 -7 -395 -5 l-265 2 -3 435 c-1 239 0 441 3
448 3 9 92 12 395 12 l390 0 0 -75z m6892 -39 c113 -22 307 -84 364 -116 69
-40 76 -39 72 13 l-3 42 527 3 527 2 3 -175 c2 -96 2 -180 0 -185 -2 -6 -135
-10 -363 -10 l-360 0 36 -47 c50 -65 117 -205 160 -335 30 -92 37 -127 44
-245 19 -319 -16 -509 -133 -729 -101 -189 -257 -349 -421 -431 -22 -11 -65
-34 -95 -51 -75 -41 -275 -100 -379 -112 -189 -22 -441 -8 -544 30 -29 10 -79
26 -112 35 -33 9 -85 31 -115 49 -30 19 -75 44 -100 56 -104 52 -274 217 -357
346 -63 99 -129 259 -158 384 -67 289 -34 581 94 843 128 262 363 471 632 562
269 92 465 112 681 71z m-1508 -42 c14 -6 16 -116 16 -1150 l0 -1144 -222 2
-222 3 -58 75 c-32 41 -86 115 -120 163 -35 48 -90 125 -122 170 -33 45 -152
210 -264 367 -245 341 -445 610 -454 610 -3 0 -4 -313 -2 -695 l5 -695 -260 0
-260 0 -6 33 c-3 17 -4 532 -3 1142 l3 1110 213 3 c157 2 219 -1 236 -10 13
-7 93 -110 178 -228 85 -118 188 -262 231 -320 42 -58 109 -150 148 -205 68
-93 99 -136 282 -385 92 -125 169 -220 178 -220 5 0 8 363 9 1337 l0 33 228 3
c125 1 232 3 239 5 6 1 18 -1 27 -4z m-2078 -174 c1 -91 -1 -186 -3 -212 l-5
-48 -487 0 c-267 0 -491 -4 -498 -8 -8 -5 -11 -72 -10 -237 l2 -230 455 -5
455 -5 0 -208 c0 -115 -2 -213 -6 -218 -3 -5 -203 -10 -455 -11 l-449 -3 0
-245 0 -245 515 -5 515 -5 3 -216 2 -216 -256 -6 c-142 -4 -488 -7 -770 -7
-497 0 -514 1 -524 19 -7 13 -10 390 -10 1150 l0 1131 763 -2 762 -3 1 -165z 
M12635 10811 c-136 -22 -289 -113 -391 -231 -138 -162 -188 -458
-117 -710 52 -190 244 -374 444 -426 91 -24 330 -24 419 0 102 28 208 88 278
159 79 79 107 121 148 221 86 215 90 357 15 552 -85 219 -206 336 -431 414
-52 18 -91 24 -190 26 -69 1 -147 -1 -175 -5z"/>
  </g>
</svg>